<?xml version="1.0" encoding="UTF-8"?>
<!-- Generated by Pixelmator Pro 2.4.3 -->
<svg width="193" height="256" viewBox="0 0 193 256" xmlns="http://www.w3.org/2000/svg" xmlns:xlink="http://www.w3.org/1999/xlink">
    <path id="Teardrop-Marker" fill="#003d72" fill-rule="evenodd" stroke="none" d="M 164.737762 68.270462 C 202.404236 105.975204 202.373123 167.075653 164.668442 204.74205 C 126.96376 242.408447 65.863312 242.377472 28.196848 204.672729 C -9.469618 166.967987 -9.438509 105.867523 28.266171 68.201141 L 96.536629 0 L 164.737762 68.270462 Z"/>
    <path id="Teardrop-Marker-copy" fill="#0088ff" fill-rule="evenodd" stroke="none" d="M 164.726456 90.520462 C 202.392929 128.225204 202.361816 189.325653 164.657135 226.99205 C 126.952461 264.658447 65.852013 264.627472 28.185547 226.922729 C -9.48092 189.217972 -9.449811 128.117523 28.254868 90.451126 L 96.525322 22.25 L 164.726456 90.520462 Z"/>
    <path id="Quarter-Circle" fill="#e6b800" fill-rule="evenodd" stroke="none" d="M 43.276604 75.609512 C 72.746223 105.109085 120.550148 105.133377 150.049713 75.663757 L 96.690277 22.250076 L 43.276604 75.609512 Z"/>
    <path id="Mic" fill="#003d72" fill-rule="evenodd" stroke="#003d72" stroke-width="5" stroke-linecap="round" stroke-linejoin="round" d="M 101.524574 198.415985 L 101.516838 213.647614 L 127.44355 213.660782 C 130.307373 213.662231 132.627731 215.982773 132.626282 218.843857 C 132.624832 221.704941 130.302109 224.023117 127.438286 224.021667 L 65.214165 223.990051 C 62.350372 223.988602 60.030006 221.66806 60.03146 218.806976 C 60.032913 215.945892 62.355637 213.627716 65.219429 213.629181 L 91.146156 213.642349 L 91.153893 198.410721 C 65.617516 195.741486 46.227776 174.227692 46.23954 148.576233 L 46.246853 134.186127 C 46.248306 131.325027 48.57103 129.006866 51.434822 129.008316 C 54.298626 129.009766 56.618992 131.330292 56.617538 134.191391 L 56.610229 148.581497 C 56.599087 170.516449 74.388657 188.307236 96.34436 188.31839 C 118.300079 188.329544 136.107712 170.556824 136.118851 148.621887 L 136.12616 134.231781 C 136.127609 131.370682 138.450333 129.052521 141.314133 129.05397 C 144.177917 129.05542 146.498291 131.375946 146.496841 134.237061 L 146.489532 148.627151 C 146.475235 174.278595 127.063652 195.77269 101.524574 198.415985 Z M 96.352547 172.201477 C 83.306412 172.194839 72.735786 161.623489 72.742409 148.589691 L 72.767555 99.087723 C 72.77417 86.053925 83.35553 75.493317 96.401665 75.499939 C 109.447807 75.506577 120.018417 86.077927 120.011795 99.111725 L 119.986649 148.613678 C 119.980034 161.647491 109.398682 172.208099 96.352547 172.201477 Z"/>
    <path id="Rectangle" fill="#003d72" fill-rule="evenodd" stroke="#003d72" stroke-width="5" stroke-linecap="round" stroke-linejoin="round" d="M 73.01651 95.488068 L 120.266502 95.51207 L 120.279709 69.51207 L 73.029716 69.488068 Z"/>
    <path id="Dome" fill="#003d72" fill-rule="evenodd" stroke="#003d72" stroke-width="5" stroke-linecap="round" stroke-linejoin="round" d="M 120.29171 45.88707 L 120.29171 45.88707 C 120.29834 32.83934 109.726456 22.256699 96.678719 22.250076 C 83.630989 22.243454 73.048347 32.815338 73.041718 45.863068 L 73.029716 69.488068 L 120.279709 69.51207 L 120.29171 45.88707 Z"/>
    <path id="Pill" fill="#0088ff" fill-rule="evenodd" stroke="none" d="M 106.24955 128.894501 C 106.240051 147.595062 102.004745 153.752808 96.619957 153.750061 C 91.235184 153.74733 86.740051 147.585159 86.74955 128.884583 L 86.784485 60.105515 C 86.793983 41.404877 91.294365 37.247345 96.679138 37.250076 C 102.063919 37.252808 106.293983 41.41478 106.284485 60.115417 L 106.24955 128.894501 Z"/>
</svg>
